<svg width="39" height="39" viewBox="0 0 39 39" fill="none" xmlns="http://www.w3.org/2000/svg">
<path fill-rule="evenodd" clip-rule="evenodd" d="M19.5 1.55493C9.33958 1.55493 1.10052 9.79216 1.10052 19.9544C1.10052 28.0841 6.37253 34.9807 13.6832 37.4139C14.6024 37.5845 14.94 37.0148 14.94 36.5288C14.94 36.09 14.923 34.6406 14.9151 33.1032C9.79631 34.2162 8.71619 30.9323 8.71619 30.9323C7.87921 28.8056 6.67326 28.2401 6.67326 28.2401C5.00357 27.0981 6.7991 27.1219 6.7991 27.1219C8.64642 27.2514 9.61959 29.0179 9.61959 29.0179C11.2606 31.8302 13.9239 31.0173 14.9739 30.5475C15.139 29.3583 15.6158 28.5463 16.142 28.0868C12.0553 27.6222 7.75886 26.0442 7.75886 18.994C7.75886 16.9852 8.47792 15.3439 9.65493 14.055C9.46359 13.5919 8.8338 11.7205 9.83287 9.18613C9.83287 9.18613 11.3776 8.69163 14.8937 11.0722C16.3617 10.6642 17.936 10.4591 19.5 10.4521C21.063 10.4591 22.6383 10.6636 24.109 11.0715C27.6208 8.69102 29.1638 9.18552 29.1638 9.18552C30.1653 11.7196 29.5355 13.5913 29.3444 14.0544C30.5242 15.3433 31.2381 16.9846 31.2381 18.9934C31.2381 26.0603 26.9338 27.6161 22.8366 28.0719C23.4969 28.6429 24.0849 29.7629 24.0849 31.4792C24.0849 33.9411 24.0636 35.9225 24.0636 36.5285C24.0636 37.0181 24.3951 37.5918 25.3274 37.4112C32.6339 34.9755 37.8998 28.081 37.8998 19.9544C37.8995 9.79277 29.6613 1.55493 19.5 1.55493Z" fill="black"/>
<path d="M8.06932 27.9724C8.0288 28.0638 7.88499 28.0912 7.75397 28.0287C7.61991 27.969 7.54526 27.8444 7.58853 27.7527C7.62814 27.6582 7.77225 27.6323 7.9054 27.6954C8.03946 27.7554 8.11564 27.8812 8.06902 27.9727L8.06932 27.9724ZM8.81459 28.8038C8.72714 28.8852 8.55561 28.8474 8.43922 28.7185C8.31856 28.5906 8.29601 28.419 8.38529 28.3365C8.47608 28.2554 8.64244 28.2938 8.7631 28.4218C8.88314 28.5516 8.90691 28.7216 8.81489 28.8041L8.81459 28.8038ZM9.54036 29.8632C9.42762 29.9419 9.24298 29.8684 9.12903 29.7048C9.01629 29.5409 9.01629 29.3444 9.13207 29.2661C9.24572 29.1874 9.42762 29.2584 9.5434 29.4205C9.65553 29.5866 9.65553 29.7834 9.54036 29.8632ZM10.5339 30.8873C10.4334 30.9985 10.2183 30.9686 10.0611 30.8172C9.9005 30.6688 9.85571 30.4577 9.95656 30.3468C10.0589 30.2353 10.275 30.2663 10.4331 30.4169C10.5937 30.5649 10.6421 30.7764 10.5346 30.887L10.5339 30.8873ZM11.905 31.4817C11.8602 31.6259 11.6537 31.6914 11.445 31.6298C11.2369 31.5667 11.1007 31.3983 11.1433 31.2526C11.186 31.1073 11.3941 31.0393 11.604 31.1048C11.8121 31.1676 11.9483 31.3352 11.905 31.4817ZM13.4111 31.5917C13.4163 31.7435 13.2396 31.869 13.0211 31.872C12.8008 31.8772 12.6226 31.7541 12.6204 31.6048C12.6204 31.4516 12.7935 31.3276 13.0135 31.3233C13.2319 31.3193 13.4114 31.4412 13.4114 31.5914L13.4111 31.5917ZM14.8121 31.3535C14.8383 31.5012 14.6862 31.6533 14.469 31.6938C14.2557 31.7334 14.0577 31.6414 14.0302 31.4948C14.004 31.3431 14.1588 31.1911 14.3721 31.1518C14.5896 31.1143 14.7846 31.2033 14.8121 31.3535Z" fill="black"/>
</svg>
